# Made in Blockbench 4.5.2
mtllib block_staff.mtl

o cube
v 0.125 3.6875 0.125
v 0.125 3.6875 -0.125
v 0.125 0 0.125
v 0.125 0 -0.125
v -0.125 3.6875 -0.125
v -0.125 3.6875 0.125
v -0.125 0 -0.125
v -0.125 0 0.125
vt 0.08333333333333333 0.7604166666666666
vt 0.125 0.7604166666666666
vt 0.125 0.14583333333333337
vt 0.08333333333333333 0.14583333333333337
vt 0.08333333333333333 0.7604166666666666
vt 0.125 0.7604166666666666
vt 0.125 0.14583333333333337
vt 0.08333333333333333 0.14583333333333337
vt 0.08333333333333333 0.7604166666666666
vt 0.125 0.7604166666666666
vt 0.125 0.14583333333333337
vt 0.08333333333333333 0.14583333333333337
vt 0.08333333333333333 0.7604166666666666
vt 0.125 0.7604166666666666
vt 0.125 0.14583333333333337
vt 0.08333333333333333 0.14583333333333337
vt 0.13541666666666666 0.1875
vt 0.17708333333333334 0.1875
vt 0.17708333333333334 0.14583333333333337
vt 0.13541666666666666 0.14583333333333337
vt 0.13541666666666666 0.1875
vt 0.17708333333333334 0.1875
vt 0.17708333333333334 0.14583333333333337
vt 0.13541666666666666 0.14583333333333337
vn 0 0 -1
vn 1 0 0
vn 0 0 1
vn -1 0 0
vn 0 1 0
vn 0 -1 0
usemtl m_7e996a3d-a80a-e6ad-e09d-a30bec0b4dac
f 4/4/1 7/3/1 5/2/1 2/1/1
f 3/8/2 4/7/2 2/6/2 1/5/2
f 8/12/3 3/11/3 1/10/3 6/9/3
f 7/16/4 8/15/4 6/14/4 5/13/4
f 6/20/5 1/19/5 2/18/5 5/17/5
f 7/24/6 4/23/6 3/22/6 8/21/6
o cube
v 0.5625 3.8125 0.125
v 0.5625 3.8125 -0.125
v 0.5625 3.6875 0.125
v 0.5625 3.6875 -0.125
v -0.125 3.8125 -0.125
v -0.125 3.8125 0.125
v -0.125 3.6875 -0.125
v -0.125 3.6875 0.125
vt 0.010416666666666666 0.78125
vt 0.125 0.78125
vt 0.125 0.7604166666666666
vt 0.010416666666666666 0.7604166666666666
vt 0.17708333333333334 0.78125
vt 0.21875 0.78125
vt 0.21875 0.7604166666666666
vt 0.17708333333333334 0.7604166666666666
vt 0.125 0.78125
vt 0.010416666666666666 0.78125
vt 0.010416666666666666 0.7604166666666666
vt 0.125 0.7604166666666666
vt 0.13541666666666666 0.78125
vt 0.17708333333333334 0.78125
vt 0.17708333333333334 0.7604166666666666
vt 0.13541666666666666 0.7604166666666666
vt 0.16666666666666666 0.7916666666666666
vt 0.052083333333333336 0.7916666666666666
vt 0.052083333333333336 0.8333333333333334
vt 0.16666666666666666 0.8333333333333334
vt 0.15625 0.9166666666666666
vt 0.041666666666666664 0.9166666666666666
vt 0.041666666666666664 0.875
vt 0.15625 0.875
vn 0 0 -1
vn 1 0 0
vn 0 0 1
vn -1 0 0
vn 0 1 0
vn 0 -1 0
usemtl m_7e996a3d-a80a-e6ad-e09d-a30bec0b4dac
f 12/28/7 15/27/7 13/26/7 10/25/7
f 11/32/8 12/31/8 10/30/8 9/29/8
f 16/36/9 11/35/9 9/34/9 14/33/9
f 15/40/10 16/39/10 14/38/10 13/37/10
f 14/44/11 9/43/11 10/42/11 13/41/11
f 15/48/12 12/47/12 11/46/12 16/45/12
o cube
v 0.5625 4.8125 0.125
v 0.5625 4.8125 -0.125
v 0.5625 4.6875 0.125
v 0.5625 4.6875 -0.125
v -0.125 4.8125 -0.125
v -0.125 4.8125 0.125
v -0.125 4.6875 -0.125
v -0.125 4.6875 0.125
vt 0.010416666666666666 0.9479166666666666
vt 0.125 0.9479166666666666
vt 0.125 0.9270833333333334
vt 0.010416666666666666 0.9270833333333334
vt 0.17708333333333334 0.9479166666666666
vt 0.21875 0.9479166666666666
vt 0.21875 0.9270833333333334
vt 0.17708333333333334 0.9270833333333334
vt 0.125 0.9479166666666666
vt 0.010416666666666666 0.9479166666666666
vt 0.010416666666666666 0.9270833333333334
vt 0.125 0.9270833333333334
vt 0.13541666666666666 0.7604166666666666
vt 0.17708333333333334 0.7604166666666666
vt 0.17708333333333334 0.78125
vt 0.13541666666666666 0.78125
vt 0.15625 0.875
vt 0.041666666666666664 0.875
vt 0.041666666666666664 0.9166666666666666
vt 0.15625 0.9166666666666666
vt 0.16666666666666666 0.8333333333333334
vt 0.052083333333333336 0.8333333333333334
vt 0.052083333333333336 0.7916666666666666
vt 0.16666666666666666 0.7916666666666666
vn 0 0 -1
vn 1 0 0
vn 0 0 1
vn -1 0 0
vn 0 1 0
vn 0 -1 0
usemtl m_7e996a3d-a80a-e6ad-e09d-a30bec0b4dac
f 20/52/13 23/51/13 21/50/13 18/49/13
f 19/56/14 20/55/14 18/54/14 17/53/14
f 24/60/15 19/59/15 17/58/15 22/57/15
f 23/64/16 24/63/16 22/62/16 21/61/16
f 22/68/17 17/67/17 18/66/17 21/65/17
f 23/72/18 20/71/18 19/70/18 24/69/18
o cube
v 0.5625 4.6875 0.125
v 0.5625 4.6875 -0.125
v 0.5625 3.8125 0.125
v 0.5625 3.8125 -0.125
v 0.4375 4.6875 -0.125
v 0.4375 4.6875 0.125
v 0.4375 3.8125 -0.125
v 0.4375 3.8125 0.125
vt 0.010416666666666666 0.9270833333333334
vt 0.03125 0.9270833333333334
vt 0.03125 0.78125
vt 0.010416666666666666 0.78125
vt 0.17708333333333334 0.9270833333333334
vt 0.21875 0.9270833333333334
vt 0.21875 0.78125
vt 0.17708333333333334 0.78125
vt 0.03125 0.9270833333333334
vt 0.010416666666666666 0.9270833333333334
vt 0.010416666666666666 0.78125
vt 0.03125 0.78125
vt 0.22916666666666666 0.9270833333333334
vt 0.2708333333333333 0.9270833333333334
vt 0.2708333333333333 0.78125
vt 0.22916666666666666 0.78125
vt 0 1
vt 0.020833333333333332 1
vt 0.020833333333333332 0.9583333333333334
vt 0 0.9583333333333334
vt 0 1
vt 0.020833333333333332 1
vt 0.020833333333333332 0.9583333333333334
vt 0 0.9583333333333334
vn 0 0 -1
vn 1 0 0
vn 0 0 1
vn -1 0 0
vn 0 1 0
vn 0 -1 0
usemtl m_7e996a3d-a80a-e6ad-e09d-a30bec0b4dac
f 28/76/19 31/75/19 29/74/19 26/73/19
f 27/80/20 28/79/20 26/78/20 25/77/20
f 32/84/21 27/83/21 25/82/21 30/81/21
f 31/88/22 32/87/22 30/86/22 29/85/22
f 30/92/23 25/91/23 26/90/23 29/89/23
f 31/96/24 28/95/24 27/94/24 32/93/24
o cube
v 0.125 5.0625 0.125
v 0.125 5.0625 -0.125
v 0.125 4.8125 0.125
v 0.125 4.8125 -0.125
v -0.125 5.0625 -0.125
v -0.125 5.0625 0.125
v -0.125 4.8125 -0.125
v -0.125 4.8125 0.125
vt 0.08333333333333333 0.9895833333333334
vt 0.125 0.9895833333333334
vt 0.125 0.9479166666666666
vt 0.08333333333333333 0.9479166666666666
vt 0.08333333333333333 0.9895833333333334
vt 0.125 0.9895833333333334
vt 0.125 0.9479166666666666
vt 0.08333333333333333 0.9479166666666666
vt 0.08333333333333333 0.9895833333333334
vt 0.125 0.9895833333333334
vt 0.125 0.9479166666666666
vt 0.08333333333333333 0.9479166666666666
vt 0.08333333333333333 0.9895833333333334
vt 0.125 0.9895833333333334
vt 0.125 0.9479166666666666
vt 0.08333333333333333 0.9479166666666666
vt 0.13541666666666666 0.9895833333333334
vt 0.17708333333333334 0.9895833333333334
vt 0.17708333333333334 0.9479166666666666
vt 0.13541666666666666 0.9479166666666666
vt 0 1
vt 0.041666666666666664 1
vt 0.041666666666666664 0.9583333333333334
vt 0 0.9583333333333334
vn 0 0 -1
vn 1 0 0
vn 0 0 1
vn -1 0 0
vn 0 1 0
vn 0 -1 0
usemtl m_7e996a3d-a80a-e6ad-e09d-a30bec0b4dac
f 36/100/25 39/99/25 37/98/25 34/97/25
f 35/104/26 36/103/26 34/102/26 33/101/26
f 40/108/27 35/107/27 33/106/27 38/105/27
f 39/112/28 40/111/28 38/110/28 37/109/28
f 38/116/29 33/115/29 34/114/29 37/113/29
f 39/120/30 36/119/30 35/118/30 40/117/30